<svg id="Chapter_Logo" data-name="Chapter Logo" xmlns="http://www.w3.org/2000/svg" width="206.253" height="47.391" viewBox="0 0 206.253 47.391">
  <path id="Path_43" data-name="Path 43" d="M757.694,347.316a7.477,7.477,0,0,0-5.748,2.332,9.027,9.027,0,0,0-2.169,6.4,8.925,8.925,0,0,0,2.169,6.371,8.216,8.216,0,0,0,11.469-.054,10.065,10.065,0,0,0,0-12.689A7.567,7.567,0,0,0,757.694,347.316Z" transform="translate(-675.665 -332.263)" fill="none"/>
  <path id="Path_44" data-name="Path 44" d="M912.843,347.316a7.567,7.567,0,0,0-5.722,2.359,10.069,10.069,0,0,0,0,12.689,8.217,8.217,0,0,0,11.469.054,8.93,8.93,0,0,0,2.17-6.371,9.032,9.032,0,0,0-2.17-6.4A7.479,7.479,0,0,0,912.843,347.316Z" transform="translate(-794.213 -332.263)" fill="none"/>
  <path id="Path_45" data-name="Path 45" d="M1136.926,350.53a6.1,6.1,0,0,0-1.873-4.08,7.341,7.341,0,0,0-5.124-1.9,7.513,7.513,0,0,0-5.206,1.9,7.071,7.071,0,0,0-2.135,4.08Z" transform="translate(-960.62 -330.151)" fill="none"/>
  <path id="Path_46" data-name="Path 46" d="M450.124,325.568a6.826,6.826,0,0,1,4.392,1.383,6.24,6.24,0,0,1,2.224,3.77h8.08a13.753,13.753,0,0,0-4.854-8.571A14.864,14.864,0,0,0,450.287,319a16.189,16.189,0,0,0-7.809,1.844,12.938,12.938,0,0,0-5.313,5.343,18.677,18.677,0,0,0,0,16.409,13.147,13.147,0,0,0,5.313,5.343,15.993,15.993,0,0,0,7.809,1.872,14.858,14.858,0,0,0,9.679-3.147,13.748,13.748,0,0,0,4.854-8.57h-8.08a6.239,6.239,0,0,1-2.224,3.77,6.826,6.826,0,0,1-4.392,1.383A6.552,6.552,0,0,1,445.053,341q-2.033-2.25-2.033-6.591t2.033-6.591A6.556,6.556,0,0,1,450.124,325.568Z" transform="translate(-435.266 -310.626)" fill="#231f20"/>
  <path id="Path_47" data-name="Path 47" d="M594.694,291.764a10.825,10.825,0,0,0-10.249,5.5V283.44H576.8v38.8h7.646V306.3a8.638,8.638,0,0,1,1.952-6.073,6.742,6.742,0,0,1,5.206-2.115,6.556,6.556,0,0,1,5.043,1.98,7.849,7.849,0,0,1,1.844,5.558v16.593h7.591V304.778q0-6.182-3.09-9.6A10.637,10.637,0,0,0,594.694,291.764Z" transform="translate(-543.447 -283.44)" fill="#231f20"/>
  <path id="Path_48" data-name="Path 48" d="M740.5,325.622a9.754,9.754,0,0,0-3.85-4.828,11.549,11.549,0,0,0-6.508-1.79,12.905,12.905,0,0,0-6.832,1.844,12.464,12.464,0,0,0-4.745,5.343,20.627,20.627,0,0,0,0,16.436,12.457,12.457,0,0,0,4.745,5.343,12.9,12.9,0,0,0,6.832,1.845A11.416,11.416,0,0,0,736.654,348a9.9,9.9,0,0,0,3.85-4.855v6.292H748.1V319.383H740.5Zm-2.251,15.107a8.214,8.214,0,0,1-11.468.054,8.93,8.93,0,0,1-2.169-6.374,9.031,9.031,0,0,1,2.169-6.4,7.476,7.476,0,0,1,5.748-2.333,7.565,7.565,0,0,1,5.721,2.36,10.071,10.071,0,0,1,0,12.693Z" transform="translate(-650.504 -310.626)" fill="#231f20"/>
  <path id="Path_49" data-name="Path 49" d="M897.429,320.847A12.916,12.916,0,0,0,890.6,319a11.415,11.415,0,0,0-6.48,1.789,9.8,9.8,0,0,0-3.822,4.826v-6.236h-7.646v38.623h7.646V343.135a9.942,9.942,0,0,0,3.822,4.853,11.285,11.285,0,0,0,6.48,1.817,12.908,12.908,0,0,0,6.833-1.844,12.459,12.459,0,0,0,4.745-5.342,20.614,20.614,0,0,0,0-16.431A12.466,12.466,0,0,0,897.429,320.847Zm-3.471,19.928a8.217,8.217,0,0,1-11.469-.054,10.07,10.07,0,0,1,0-12.689,7.567,7.567,0,0,1,5.722-2.359,7.479,7.479,0,0,1,5.747,2.332,9.032,9.032,0,0,1,2.17,6.4A8.93,8.93,0,0,1,893.958,340.776Z" transform="translate(-769.58 -310.615)" fill="#231f20"/>
  <path id="Path_50" data-name="Path 50" d="M1030.416,314.81a4.229,4.229,0,0,1-.868-3.036V299.547h6.724v-7.483h-6.724V283.44H1021.9v28.225q0,5.694,2.685,8.134t7.727,2.44h4.012v-6.561h-2.982A4.048,4.048,0,0,1,1030.416,314.81Z" transform="translate(-883.667 -283.44)" fill="#231f20"/>
  <path id="Path_51" data-name="Path 51" d="M1112.79,320.848a15.836,15.836,0,0,0-7.782-1.844,16.19,16.19,0,0,0-7.809,1.844,12.943,12.943,0,0,0-5.314,5.343,18.681,18.681,0,0,0,0,16.409,13.152,13.152,0,0,0,5.314,5.343,17.176,17.176,0,0,0,14.615.461,13.324,13.324,0,0,0,5.016-3.905,12.929,12.929,0,0,0,2.548-5.641h-8.08a5.766,5.766,0,0,1-2.25,3.525,7.239,7.239,0,0,1-4.42,1.3,6.972,6.972,0,0,1-4.989-1.9q-2.007-1.9-2.17-5.913h22.016a14.492,14.492,0,0,0,.272-2.6,14.724,14.724,0,0,0-1.817-7.35A13.011,13.011,0,0,0,1112.79,320.848Zm-7.782,4.177a7.339,7.339,0,0,1,5.124,1.9,6.1,6.1,0,0,1,1.873,4.081h-14.338a7.075,7.075,0,0,1,2.135-4.081A7.512,7.512,0,0,1,1105.008,325.025Z" transform="translate(-935.699 -310.626)" fill="#231f20"/>
  <path id="Path_52" data-name="Path 52" d="M1243.821,319.866a10.886,10.886,0,0,0-10.885,10.888V350.1h7.725V332.568a4.974,4.974,0,0,1,4.973-4.975h5.591v-7.727Z" transform="translate(-1044.972 -311.285)" fill="#231f20"/>
</svg>
