<svg xmlns="http://www.w3.org/2000/svg" width="54.412" height="49.578" viewBox="0 0 54.412 49.578">
  <g id="Chapter_Logo" data-name="Chapter Logo" transform="translate(0 0.23)">
    <path id="Path_39" data-name="Path 39" d="M189.95,424.167a18.171,18.171,0,0,1-7.351,6.508c-3.072,1.536-10.884,2.341-10.884,2.341h8.746V433c.155,0,.306.013.463.013A24.506,24.506,0,0,0,192,430.674a18.173,18.173,0,0,0,7.351-6.508,19.652,19.652,0,0,0,2.981-9.66h-9.4A19.652,19.652,0,0,1,189.95,424.167Z" transform="translate(-147.922 -383.667)" fill="#231f20"/>
    <path id="Path_40" data-name="Path 40" d="M189.9,271.716a18.82,18.82,0,0,1,3.027,9.675h9.4a18.818,18.818,0,0,0-3.027-9.675,18.37,18.37,0,0,0-7.46-6.4,24.972,24.972,0,0,0-10.986-2.278c-.135,0-.265.009-.4.011v-.011h-8.746s7.652.791,10.728,2.278A18.369,18.369,0,0,1,189.9,271.716Z" transform="translate(-147.922 -263.192)" fill="#231f20"/>
    <path id="Path_41" data-name="Path 41" d="M126.347,315.351a10.777,10.777,0,0,0-3.575,4.853,20.68,20.68,0,0,0-1.279,7.709,21.365,21.365,0,0,0,1.264,7.8,10.726,10.726,0,0,0,3.574,4.9,9.484,9.484,0,0,0,9.5.749c.2-.1.381-.223.568-.339-.224-.134-.455-.254-.669-.41a10.725,10.725,0,0,1-3.573-4.9,21.361,21.361,0,0,1-1.264-7.8,20.68,20.68,0,0,1,1.279-7.709,10.777,10.777,0,0,1,3.575-4.853c.22-.16.458-.284.69-.421a8.594,8.594,0,0,0-4.71-1.249A8.9,8.9,0,0,0,126.347,315.351Z" transform="translate(-107.976 -303.471)" fill="#231f20"/>
    <path id="Path_42" data-name="Path 42" d="M97.455,303.692a19.652,19.652,0,0,0,2.981-9.66H87.889a10.41,10.41,0,0,1-1.576,4.323,8.091,8.091,0,0,1-2.459,2.392c-.187.116-.37.238-.568.339a9.484,9.484,0,0,1-9.5-.749,10.724,10.724,0,0,1-3.574-4.9,21.36,21.36,0,0,1-1.264-7.8,20.68,20.68,0,0,1,1.279-7.709,10.777,10.777,0,0,1,3.575-4.853,8.9,8.9,0,0,1,5.384-1.67,8.6,8.6,0,0,1,4.71,1.249,7.478,7.478,0,0,1,1.2.952,9.807,9.807,0,0,1,2.793,5.789h12.547a18.818,18.818,0,0,0-3.027-9.675,18.367,18.367,0,0,0-7.46-6.4,24.831,24.831,0,0,0-10.728-2.272c-.087,0-.17-.006-.258-.006a24.1,24.1,0,0,0-12.546,3.136,21.127,21.127,0,0,0-8.131,8.708,30.715,30.715,0,0,0-.031,25.8,20.866,20.866,0,0,0,8.115,8.723,24.379,24.379,0,0,0,12.657,3.137c.066,0,.129,0,.195,0A24.394,24.394,0,0,0,90.1,310.2,18.172,18.172,0,0,0,97.455,303.692Z" transform="translate(-55.431 -263.27)" fill="#faf5ee"/>
  </g>
</svg>
