<svg xmlns="http://www.w3.org/2000/svg" width="36" height="36" viewBox="0 0 36 36">
  <g id="Add" transform="translate(23955 1260)">
    <rect id="Rectangle_784" data-name="Rectangle 784" width="36" height="36" transform="translate(-23955 -1260)" fill="none"/>
    <path id="add_circle_FILL0_wght300_GRAD0_opsz24_1_" data-name="add_circle_FILL0_wght300_GRAD0_opsz24 (1)" d="M11.25,16.75h1.5v-4h4v-1.5h-4v-4h-1.5v4h-4v1.5h4ZM12,21.5a9.263,9.263,0,0,1-3.712-.75A9.432,9.432,0,0,1,3.25,15.712a9.563,9.563,0,0,1,0-7.425A9.435,9.435,0,0,1,8.288,3.25a9.563,9.563,0,0,1,7.425,0A9.437,9.437,0,0,1,20.75,8.287a9.563,9.563,0,0,1,0,7.425,9.435,9.435,0,0,1-5.037,5.038A9.27,9.27,0,0,1,12,21.5ZM12,20a7.721,7.721,0,0,0,5.675-2.325A7.721,7.721,0,0,0,20,12a7.721,7.721,0,0,0-2.325-5.675A7.721,7.721,0,0,0,12,4,7.721,7.721,0,0,0,6.325,6.325,7.721,7.721,0,0,0,4,12a7.721,7.721,0,0,0,2.325,5.675A7.721,7.721,0,0,0,12,20ZM12,12Z" transform="translate(-23949.5 -1253.5)"/>
  </g>
</svg>
