<svg xmlns="http://www.w3.org/2000/svg" width="36" height="36" viewBox="0 0 36 36">
  <g id="Archive_Icon" data-name="Archive Icon" transform="translate(23210 1244)">
    <rect id="Rectangle_783" data-name="Rectangle 783" width="36" height="36" transform="translate(-23210 -1244)" fill="none"/>
    <path id="archive_FILL0_wght300_GRAD0_opsz24" d="M5.3,20.5a1.793,1.793,0,0,1-1.8-1.8V7.075A1.728,1.728,0,0,1,3.588,6.5a1.661,1.661,0,0,1,.262-.475l1.325-1.6a.984.984,0,0,1,.45-.325A1.669,1.669,0,0,1,6.2,4H17.8a1.669,1.669,0,0,1,.575.1.984.984,0,0,1,.45.325l1.3,1.6A1.955,1.955,0,0,1,20.4,6.5a1.54,1.54,0,0,1,.1.575V18.7a1.793,1.793,0,0,1-1.8,1.8Zm.1-14H18.6l-.85-1H6.25ZM5,8V18.7a.354.354,0,0,0,.3.3H18.7a.354.354,0,0,0,.3-.3V8Zm7,9.6,3.65-3.65L14.6,12.9l-1.85,1.85V10.3h-1.5v4.45L9.4,12.9,8.35,13.95ZM5,19H5Z" transform="translate(-23203.5 -1238)" fill="#231f20"/>
  </g>
</svg>
