<svg xmlns="http://www.w3.org/2000/svg" width="36" height="36" viewBox="0 0 36 36">
  <g id="Attached_Icon" data-name="Attached Icon" transform="translate(20101 1324)">
    <path id="attachment_FILL0_wght300_GRAD0_opsz24" d="M7.3,17.275a5.046,5.046,0,0,1-3.725-1.538A5.107,5.107,0,0,1,2.05,12,5.089,5.089,0,0,1,3.588,8.262,5.087,5.087,0,0,1,7.325,6.725h10.8A3.819,3.819,0,0,1,21.95,10.55a3.819,3.819,0,0,1-3.825,3.825H8.375A2.348,2.348,0,0,1,6,12,2.348,2.348,0,0,1,8.375,9.625h9.75V10.8H8.375a1.118,1.118,0,0,0-.838.35,1.24,1.24,0,0,0,0,1.7,1.118,1.118,0,0,0,.838.35h9.75a2.6,2.6,0,0,0,2.65-2.65,2.533,2.533,0,0,0-.762-1.862,2.564,2.564,0,0,0-1.888-.763H7.325A3.942,3.942,0,0,0,4.45,9.113,3.908,3.908,0,0,0,3.25,12a3.942,3.942,0,0,0,1.188,2.875,3.879,3.879,0,0,0,2.862,1.2H18.125v1.2Z" transform="translate(-20095.051 -1317.725)"/>
    <rect id="Rectangle_776" data-name="Rectangle 776" width="36" height="36" transform="translate(-20101 -1324)" fill="none"/>
  </g>
</svg>
