<svg xmlns="http://www.w3.org/2000/svg" width="36" height="36" viewBox="0 0 36 36">
  <g id="Video-Outline" transform="translate(0.002 0.002)">
    <rect id="Surface" width="36" height="36" transform="translate(-0.002 -0.002)" fill="none"/>
    <path id="videocam_FILL0_wght300_GRAD0_opsz24" d="M4.775,21.375A2.017,2.017,0,0,1,2.75,19.35V6.525A2.017,2.017,0,0,1,4.775,4.5h12.8a1.986,1.986,0,0,1,1.463.591,1.953,1.953,0,0,1,.591,1.434v5.147l3.938-3.937V18.141L19.625,14.2V19.35a1.953,1.953,0,0,1-.591,1.434,1.986,1.986,0,0,1-1.463.591Zm0-1.687h12.8a.364.364,0,0,0,.268-.1.328.328,0,0,0,.1-.24V6.525a.325.325,0,0,0-.1-.238.362.362,0,0,0-.268-.1H4.775a.338.338,0,0,0-.337.337V19.35a.336.336,0,0,0,.337.337Zm-.338,0v0Z" transform="translate(4.844 5.625)" fill="#231f20"/>
  </g>
</svg>
