<svg id="Contact_us" data-name="Contact us" xmlns="http://www.w3.org/2000/svg" width="52" height="52" viewBox="0 0 52 52">
  <path id="forum_FILL0_wght300_GRAD0_opsz48" d="M5.4,32.55V6.85A1.84,1.84,0,0,1,5.95,5.6,1.614,1.614,0,0,1,7.15,5h24.9a1.72,1.72,0,0,1,1.225.575A1.768,1.768,0,0,1,33.85,6.85V23.6a1.8,1.8,0,0,1-.575,1.25,1.691,1.691,0,0,1-1.225.6H12.45Zm8.85,1.7a1.691,1.691,0,0,1-1.225-.6,1.8,1.8,0,0,1-.575-1.25V28.75H36.5l.6.6V12h3.75a1.614,1.614,0,0,1,1.2.6,1.891,1.891,0,0,1,.55,1.3V41.3l-7.05-7.05Zm17.35-27H7.65v19.8L11.5,23.2H31.6Zm-23.95,0v0Z" transform="translate(2 2.85)"/>
  <rect id="Rectangle_766" data-name="Rectangle 766" width="52" height="52" fill="none"/>
</svg>
