<svg xmlns="http://www.w3.org/2000/svg" width="17" height="17" viewBox="0 0 17 17">
  <path id="Delete" d="M8.4,16.65l3.6-3.6,3.6,3.6,1.05-1.05L13.05,12l3.6-3.6L15.6,7.35,12,10.95,8.4,7.35,7.35,8.4l3.6,3.6-3.6,3.6ZM5.3,20.5a1.793,1.793,0,0,1-1.8-1.8V5.3A1.793,1.793,0,0,1,5.3,3.5H18.7a1.793,1.793,0,0,1,1.8,1.8V18.7a1.793,1.793,0,0,1-1.8,1.8Zm0-1.5H18.7a.354.354,0,0,0,.3-.3V5.3a.354.354,0,0,0-.3-.3H5.3a.354.354,0,0,0-.3.3V18.7a.354.354,0,0,0,.3.3ZM5,5V5Z" transform="translate(-3.5 -3.5)" fill="#e1cdc0"/>
</svg>
