<svg xmlns="http://www.w3.org/2000/svg" width="36" height="36" viewBox="0 0 36 36">
  <g id="Doc-Outline" transform="translate(0.002 0.002)">
    <rect id="Surface" width="36" height="36" transform="translate(-0.002 -0.002)" fill="none"/>
    <path id="description_FILL0_wght300_GRAD0_opsz24" d="M8.719,19.656h8.438V17.969H8.719Zm0-4.5h8.438V13.469H8.719ZM6.525,23.875A2.017,2.017,0,0,1,4.5,21.85V4.525A2.017,2.017,0,0,1,6.525,2.5h8.944l5.906,5.906V21.85a2.017,2.017,0,0,1-2.025,2.025Zm8.1-14.625V4.188h-8.1a.4.4,0,0,0-.337.337V21.85a.4.4,0,0,0,.337.338H19.35a.4.4,0,0,0,.338-.338V9.25ZM6.188,4.188v0Z" transform="translate(5.625 5.375)" fill="#231f20"/>
  </g>
</svg>
