<?xml version="1.0" encoding="UTF-8"?>
<svg width="16px" height="16px" viewBox="0 0 16 16" version="1.1" xmlns="http://www.w3.org/2000/svg" xmlns:xlink="http://www.w3.org/1999/xlink">
    <title>downloadIcon (1)</title>
    <g id="Page-1" stroke="none" stroke-width="1" fill="none" fill-rule="evenodd">
        <g id="Hotels-Copy-11" transform="translate(-306.000000, -198.000000)" fill="#231F20" fill-rule="nonzero">
            <g id="downloadIcon-(1)" transform="translate(306.499973, 198.412000)">
                <path d="M1.80002728,15.1750137 C1.32206688,15.1768697 0.863142722,14.9878278 0.525171098,14.6498562 C0.187199475,14.3118846 -0.00184238756,13.8529604 1.35374232e-05,13.375 L1.35374232e-05,10.675 L1.50002728,10.675 L1.50002728,13.375 C1.52238958,13.5304855 1.6445418,13.6526377 1.80002728,13.675 L13.2000273,13.675 C13.3555127,13.6526377 13.477665,13.5304855 13.5000273,13.375 L13.5000273,10.675 L15.000041,10.675 L15.000041,13.375 C15.0018969,13.8529604 14.8128551,14.3118846 14.4748835,14.6498562 C14.1369118,14.9878278 13.6779877,15.1768697 13.2000273,15.1750137 L1.80002728,15.1750137 Z M7.50002728,11.3 L3.22502728,7.025 L4.27502728,5.925 L6.75002728,8.4 L6.75002728,0 L8.25002728,0 L8.25002728,8.4 L10.7250273,5.925 L11.7750273,7.025 L7.50002728,11.3 Z" id="file_download_FILL0_wght300_GRAD0_opsz24"></path>
            </g>
        </g>
    </g>
</svg>