<svg id="Eye" xmlns="http://www.w3.org/2000/svg" width="32" height="32" viewBox="0 0 32 32">
  <rect id="Rectangle_78" data-name="Rectangle 78" width="32" height="32" fill="none"/>
  <path id="Icon_open-eye" data-name="Icon open-eye" d="M12.733,0C4.739,0,0,9.479,0,9.479s4.739,9.479,12.733,9.479c7.8,0,12.544-9.479,12.544-9.479S20.538,0,12.733,0Zm-.095,3.16A6.319,6.319,0,1,1,6.319,9.479,6.318,6.318,0,0,1,12.639,3.16Zm0,3.16a3.16,3.16,0,1,0,3.16,3.16,4,4,0,0,0-.19-.885,1.562,1.562,0,1,1-2.085-2.085A2.766,2.766,0,0,0,12.639,6.319Z" transform="translate(3.362 6.521)" fill="#231f20" opacity="0.5"/>
</svg>
