<svg xmlns="http://www.w3.org/2000/svg" width="36" height="36" viewBox="0 0 36 36">
  <g id="Finance-Outline" transform="translate(0.002 0.002)">
    <rect id="Surface" width="36" height="36" transform="translate(-0.002 -0.002)" fill="none"/>
    <path id="attach_money_FILL0_wght300_GRAD0_opsz24" d="M11.7,22.938V20.575a4.937,4.937,0,0,1-4.078-3.628L9.172,16.3a4.307,4.307,0,0,0,1.294,2.01,3.447,3.447,0,0,0,2.25.69,3.969,3.969,0,0,0,2.137-.576,2.008,2.008,0,0,0,.928-1.843,2.276,2.276,0,0,0-.69-1.744,8.292,8.292,0,0,0-2.882-1.35A7.4,7.4,0,0,1,9,11.772a3.49,3.49,0,0,1-.9-2.447A3.278,3.278,0,0,1,9.3,6.653a4.45,4.45,0,0,1,2.4-1.1V3.25h1.688V5.556a4.69,4.69,0,0,1,2.166.857,4.6,4.6,0,0,1,1.378,1.73l-1.547.7a2.945,2.945,0,0,0-1.026-1.266,3.075,3.075,0,0,0-1.758-.45,3.165,3.165,0,0,0-2.039.619,1.931,1.931,0,0,0-.774,1.575,1.871,1.871,0,0,0,.787,1.575,10.294,10.294,0,0,0,2.953,1.238A6.086,6.086,0,0,1,16.5,13.853a3.994,3.994,0,0,1,.971,2.7,3.58,3.58,0,0,1-1.181,2.854,5.2,5.2,0,0,1-2.9,1.224v2.306Z" transform="translate(5.875 4.625)" fill="#231f20"/>
  </g>
</svg>
