<svg xmlns="http://www.w3.org/2000/svg" width="78" height="78" viewBox="0 0 78 78">
  <g id="Photos" transform="translate(-252.609 -118.609)">
    <rect id="Rectangle_697" data-name="Rectangle 697" width="78" height="78" transform="translate(252.609 118.609)" fill="none"/>
    <path id="gallery_thumbnail_FILL1_wght300_GRAD0_opsz24" d="M6.488,39.722a4.57,4.57,0,0,1-3.356-1.382A4.569,4.569,0,0,1,1.75,34.983V10.238A4.57,4.57,0,0,1,3.132,6.882,4.57,4.57,0,0,1,6.488,5.5H31.233a4.719,4.719,0,0,1,4.738,4.738V34.983a4.719,4.719,0,0,1-4.738,4.738ZM43.606,19.978a2.359,2.359,0,0,1-2.369-2.369V7.869A2.359,2.359,0,0,1,43.606,5.5h9.74a2.355,2.355,0,0,1,2.369,2.369v9.74a2.355,2.355,0,0,1-2.369,2.369ZM8.594,30.376H29.127L22.48,21.492l-4.936,6.581-3.62-4.8Zm35.011,9.345a2.359,2.359,0,0,1-2.369-2.369v-9.74a2.359,2.359,0,0,1,2.369-2.369h9.74a2.355,2.355,0,0,1,2.369,2.369v9.74a2.355,2.355,0,0,1-2.369,2.369Z" transform="translate(262.997 134.998)" fill="#e1cdc0"/>
  </g>
</svg>
