<svg xmlns="http://www.w3.org/2000/svg" width="36" height="36" viewBox="0 0 36 36">
  <g id="Gallery-Outline" transform="translate(0.002 0.002)">
    <rect id="Surface" width="36" height="36" transform="translate(-0.002 -0.002)" fill="none"/>
    <path id="photo_library_FILL0_wght300_GRAD0_opsz24" d="M9.866,15.269H20.384L16.9,10.684l-2.672,3.4-1.772-2.166ZM8.713,19.375A2.017,2.017,0,0,1,6.688,17.35V4.525A2.017,2.017,0,0,1,8.713,2.5H21.538a2.017,2.017,0,0,1,2.025,2.025V17.35a2.017,2.017,0,0,1-2.025,2.025Zm0-1.687H21.538a.4.4,0,0,0,.338-.337V4.525a.4.4,0,0,0-.338-.337H8.713a.4.4,0,0,0-.337.337V17.35a.4.4,0,0,0,.337.337ZM4.775,23.313A2.017,2.017,0,0,1,2.75,21.288V6.775H4.438V21.288a.4.4,0,0,0,.337.338H19.287v1.687Zm3.6-19.125v0Z" transform="translate(4.844 5.094)" fill="#231f20"/>
  </g>
</svg>
