<svg id="Unread_Icon" data-name="Unread Icon" xmlns="http://www.w3.org/2000/svg" width="36" height="36" viewBox="0 0 36 36">
  <rect id="Rectangle_781" data-name="Rectangle 781" width="36" height="36" fill="none"/>
  <path id="mail_FILL0_wght300_GRAD0_opsz24_1_" data-name="mail_FILL0_wght300_GRAD0_opsz24 (1)" d="M4.3,19.5a1.793,1.793,0,0,1-1.8-1.8V6.3A1.793,1.793,0,0,1,4.3,4.5H19.7a1.793,1.793,0,0,1,1.8,1.8V17.7a1.793,1.793,0,0,1-1.8,1.8ZM12,12.55,4,7.45V17.7a.3.3,0,0,0,.3.3H19.7a.3.3,0,0,0,.3-.3V7.45ZM12,11l7.85-5H4.15ZM4,7.45V17.7a.3.3,0,0,0,.3.3H4V7.45Z" transform="translate(6.5 6.5)"/>
</svg>
