<svg xmlns="http://www.w3.org/2000/svg" width="36" height="36" viewBox="0 0 36 36">
  <g id="Search_Icon" data-name="Search Icon" transform="translate(-888 -532)">
    <path id="search_FILL0_wght300_GRAD0_opsz24" d="M19.55,20.575,13.25,14.3a5.65,5.65,0,0,1-1.725.975,5.877,5.877,0,0,1-2,.35A6.061,6.061,0,0,1,3.4,9.5,5.929,5.929,0,0,1,5.175,5.162a5.9,5.9,0,0,1,4.35-1.787A5.886,5.886,0,0,1,13.85,5.15,5.915,5.915,0,0,1,15.625,9.5a6.021,6.021,0,0,1-.35,2.05,5.613,5.613,0,0,1-.95,1.7L20.6,19.525ZM9.525,14.125a4.42,4.42,0,0,0,3.263-1.35A4.481,4.481,0,0,0,14.125,9.5a4.481,4.481,0,0,0-1.337-3.275,4.42,4.42,0,0,0-3.263-1.35,4.446,4.446,0,0,0-3.287,1.35A4.48,4.48,0,0,0,4.9,9.5a4.48,4.48,0,0,0,1.338,3.275,4.446,4.446,0,0,0,3.287,1.35Z" transform="translate(894.6 537.625)"/>
    <rect id="Rectangle_778" data-name="Rectangle 778" width="36" height="36" transform="translate(888 532)" fill="none"/>
  </g>
</svg>
