<svg xmlns="http://www.w3.org/2000/svg" width="36" height="36" viewBox="0 0 36 36">
  <g id="Sign_Icon" data-name="Sign Icon" transform="translate(-1287 -376)">
    <path id="draw_FILL0_wght300_GRAD0_opsz24" d="M14,20.75a.75.75,0,1,1,0-1.5,4.727,4.727,0,0,0,2.275-.525q.975-.525.975-1.225a1.163,1.163,0,0,0-.475-.9,3.946,3.946,0,0,0-1.3-.675L16.6,14.8a4.242,4.242,0,0,1,1.588,1.125A2.387,2.387,0,0,1,18.75,17.5a2.648,2.648,0,0,1-1.5,2.387A6.406,6.406,0,0,1,14,20.75ZM5.125,13.3a4.14,4.14,0,0,1-1.387-.988A1.939,1.939,0,0,1,3.25,11a2.089,2.089,0,0,1,.738-1.613A10.754,10.754,0,0,1,6.65,7.875a14.292,14.292,0,0,0,2.1-1.088A1,1,0,0,0,9.25,6a1.058,1.058,0,0,0-.575-.875A3.079,3.079,0,0,0,7,4.75a3.444,3.444,0,0,0-1.162.175,2.311,2.311,0,0,0-.863.55.775.775,0,0,1-.5.262.708.708,0,0,1-.55-.162.738.738,0,0,1-.287-.5.669.669,0,0,1,.187-.55,3.325,3.325,0,0,1,1.288-.9A4.679,4.679,0,0,1,7,3.25a4.475,4.475,0,0,1,2.713.762A2.36,2.36,0,0,1,10.75,6a2.285,2.285,0,0,1-.7,1.625A9.2,9.2,0,0,1,7.25,9.25a12.27,12.27,0,0,0-2,1.012.978.978,0,0,0-.5.738.821.821,0,0,0,.388.625,3.9,3.9,0,0,0,1.137.55Zm13.4-3.55-3.4-3.4.95-.975a1.6,1.6,0,0,1,1.163-.5,1.514,1.514,0,0,1,1.137.5L19.5,6.5A1.514,1.514,0,0,1,20,7.637,1.6,1.6,0,0,1,19.5,8.8Zm-12.6,9.2H7.2l7.65-7.65-1.275-1.275-7.65,7.65Zm-1.5,1.5v-3.4l9.15-9.175L17,11.3,7.825,20.45Zm9.15-10.425L14.85,11.3Z" transform="translate(1293.75 381.75)" fill="#231f20"/>
    <rect id="Rectangle_486" data-name="Rectangle 486" width="36" height="36" transform="translate(1287 376)" fill="none"/>
  </g>
</svg>
