<svg id="Checkmark_Undone-Outline" data-name="Checkmark  Undone-Outline" xmlns="http://www.w3.org/2000/svg" width="36" height="36" viewBox="0 0 36 36">
  <rect id="Surface" width="36" height="36" fill="none"/>
  <path id="task_alt_FILL0_wght300_GRAD0_opsz24" d="M12,21.5a9.263,9.263,0,0,1-3.712-.75A9.432,9.432,0,0,1,3.25,15.712a9.563,9.563,0,0,1,0-7.425A9.435,9.435,0,0,1,8.288,3.25a9.594,9.594,0,0,1,6.7-.275A9.616,9.616,0,0,1,17.575,4.3L16.5,5.4a8.7,8.7,0,0,0-2.113-1.025A7.571,7.571,0,0,0,12,4,7.711,7.711,0,0,0,6.338,6.337,7.713,7.713,0,0,0,4,12a7.713,7.713,0,0,0,2.338,5.663A7.711,7.711,0,0,0,12,20a7.714,7.714,0,0,0,5.663-2.337A7.714,7.714,0,0,0,20,12a7.166,7.166,0,0,0-.075-1.038q-.075-.512-.2-1.012l1.2-1.225a10.373,10.373,0,0,1,.425,1.587,9.565,9.565,0,0,1-.6,5.4,9.435,9.435,0,0,1-5.037,5.038A9.27,9.27,0,0,1,12,21.5Zm-1.425-5.25-3.9-3.9,1.05-1.05,2.85,2.85L20.45,4.275l1.05,1.05Z" transform="translate(6.297 6.5)" fill="#80d99f"/>
</svg>
