<svg id="Unread_Icon" data-name="Unread Icon" xmlns="http://www.w3.org/2000/svg" width="36" height="36" viewBox="0 0 36 36">
  <rect id="Rectangle_781" data-name="Rectangle 781" width="36" height="36" fill="none"/>
  <path id="drafts_FILL0_wght300_GRAD0_opsz24" d="M12,1.6l8.775,5.225a1.539,1.539,0,0,1,.537.575,1.561,1.561,0,0,1,.188.75V18.7a1.793,1.793,0,0,1-1.8,1.8H4.3a1.793,1.793,0,0,1-1.8-1.8V8.15a1.561,1.561,0,0,1,.188-.75,1.539,1.539,0,0,1,.537-.575Zm0,11.05L19.8,8,12,3.35,4.2,8Zm0,1.75L4,9.625V18.7a.3.3,0,0,0,.3.3H19.7a.3.3,0,0,0,.3-.3V9.625ZM12,19h0Z" transform="translate(6.5 4.95)"/>
</svg>
